<svg xmlns="http://www.w3.org/2000/svg" viewBox="0 0 200 200" width="200" height="200">
  <!-- Orange circular background -->
  <circle cx="100" cy="100" r="95" fill="#FF8C00" stroke="#333" stroke-width="10"/>
  
  <!-- Dark inner circle -->
  <circle cx="100" cy="100" r="75" fill="#333"/>
  
  <!-- Large "G" letter -->
  <path d="M60 60 Q60 40 80 40 L120 40 Q140 40 140 60 L140 90 L110 90 L110 70 L120 70 L120 60 L80 60 Q70 60 70 70 L70 130 Q70 140 80 140 L120 140 Q130 140 130 130 L130 110 L110 110 L110 100 L140 100 L140 130 Q140 150 120 150 L80 150 Q60 150 60 130 Z" fill="#FFF" stroke="#FF8C00" stroke-width="2"/>
  
  <!-- "Geektrepreneur" text at bottom -->
  <text x="100" y="175" font-family="Arial, sans-serif" font-size="14" font-weight="bold" text-anchor="middle" fill="#FFF">Geektrepreneur</text>
  
  <!-- Small decorative elements (keyboard keys) -->
  <rect x="20" y="160" width="12" height="8" rx="2" fill="#FFF" opacity="0.8"/>
  <rect x="35" y="160" width="12" height="8" rx="2" fill="#FFF" opacity="0.8"/>
  <rect x="50" y="160" width="12" height="8" rx="2" fill="#FFF" opacity="0.8"/>
  <rect x="138" y="160" width="12" height="8" rx="2" fill="#FFF" opacity="0.8"/>
  <rect x="153" y="160" width="12" height="8" rx="2" fill="#FFF" opacity="0.8"/>
  <rect x="168" y="160" width="12" height="8" rx="2" fill="#FFF" opacity="0.8"/>
</svg>